<?xml version="1.0" standalone="no"?>
<!DOCTYPE svg PUBLIC "-//W3C//DTD SVG 20010904//EN"
 "http://www.w3.org/TR/2001/REC-SVG-20010904/DTD/svg10.dtd">
<svg version="1.0" xmlns="http://www.w3.org/2000/svg"
 width="1254.000000pt" height="1254.000000pt" viewBox="0 0 1254.000000 1254.000000"
 preserveAspectRatio="xMidYMid meet">

<g transform="translate(0.000000,1254.000000) scale(0.100000,-0.100000)"
fill="#000000" stroke="none">
<path d="M3509 7519 c-91 -14 -169 -68 -214 -151 -26 -46 -29 -64 -30 -133 0
-63 5 -91 24 -133 l24 -53 -317 -318 -316 -318 0 -272 c0 -277 -3 -300 -39
-328 -12 -9 -94 -12 -308 -13 l-293 0 -19 38 c-40 78 -114 124 -200 124 -139
0 -235 -95 -235 -232 0 -136 93 -230 229 -230 93 0 165 43 206 123 l19 37 307
0 c331 0 358 3 418 52 72 60 75 76 75 364 l0 256 203 211 c111 117 245 257
298 311 l96 99 64 -12 c132 -25 259 37 312 152 34 72 40 115 26 191 -27 156
-171 258 -330 235z m110 -149 c102 -51 122 -172 42 -251 -65 -65 -154 -63
-220 5 -57 59 -54 164 5 218 56 50 113 59 173 28z m-1723 -1551 c37 -35 49
-87 31 -132 -18 -42 -68 -77 -112 -77 -43 0 -94 35 -111 76 -13 31 -13 42 -2
77 26 83 133 114 194 56z"/>
<path d="M832 7267 l-102 -102 0 -300 0 -300 42 -13 c79 -25 124 -75 142 -159
18 -81 -49 -181 -137 -205 l-47 -12 0 -301 0 -300 103 -103 102 -102 258 0
258 0 -31 38 c-17 21 -39 60 -49 86 l-18 48 -173 -2 -174 -1 -53 53 -53 52 0
208 c0 138 4 208 10 208 21 0 112 95 135 140 12 25 28 71 35 104 25 120 -31
266 -128 340 l-52 39 0 201 0 202 53 52 53 52 992 0 992 0 0 68 c0 37 3 77 6
90 l6 22 -1034 0 -1033 0 -103 -103z"/>
<path d="M9820 6370 l0 -531 63 3 62 3 3 173 2 172 74 0 c66 0 76 -3 93 -24
10 -13 73 -91 141 -175 l123 -151 79 0 c44 0 80 3 80 8 0 4 -33 46 -73 93
-170 203 -247 298 -247 307 0 5 71 90 159 188 l158 179 -80 3 c-95 3 -81 13
-245 -175 l-106 -123 -78 0 -78 0 0 290 0 290 -65 0 -65 0 0 -530z"/>
<path d="M4520 6351 l0 -511 328 0 c393 0 409 3 489 85 72 74 75 95 71 450 -3
286 -3 291 -28 339 -28 55 -66 90 -130 120 -42 20 -65 21 -387 24 l-343 3 0
-510z m688 349 c58 -35 62 -59 62 -356 0 -225 -2 -271 -16 -300 -29 -61 -43
-64 -334 -64 l-260 0 0 370 0 370 258 0 c240 0 259 -1 290 -20z"/>
<path d="M7492 6790 l3 -65 183 -3 182 -2 1 -123 c0 -67 1 -264 2 -437 l2
-315 68 -3 67 -3 0 441 0 440 185 0 185 0 0 65 0 65 -62 1 c-35 1 -233 2 -441
3 l-378 1 3 -65z"/>
<path d="M8643 6853 l-63 -4 0 -64 0 -65 65 0 65 0 0 70 c0 39 -1 69 -2 68 -2
-1 -31 -3 -65 -5z"/>
<path d="M3859 6833 c-18 -21 -87 -52 -116 -53 -21 0 -23 -5 -23 -49 0 -47 -2
-51 -44 -81 -48 -35 -72 -63 -107 -130 -21 -39 -24 -59 -24 -146 0 -96 2 -104
35 -169 25 -50 49 -80 87 -110 l52 -40 0 -205 1 -206 -53 -52 -53 -52 -577 0
-577 0 -36 -40 c-20 -22 -40 -40 -45 -40 -5 0 -9 20 -9 44 l0 44 -67 -5 c-38
-3 -69 -7 -71 -8 -1 -1 -1 -120 0 -265 l3 -263 130 182 130 181 598 0 597 0
100 102 100 103 0 300 0 301 -43 11 c-23 7 -56 22 -71 34 -58 45 -82 150 -52
222 17 43 76 93 126 108 l40 12 0 144 c0 78 -4 143 -9 143 -5 0 -15 -7 -22
-17z"/>
<path d="M11560 6418 c0 -400 2 -436 19 -474 36 -80 99 -107 238 -102 l87 3 4
63 4 62 -81 0 c-89 0 -129 13 -137 44 -2 12 -3 122 -2 246 l3 225 105 5 105 5
0 60 0 60 -108 3 -107 3 0 114 0 115 -65 0 -65 0 0 -432z"/>
<path d="M2073 6508 l-191 -191 -84 75 -83 76 -49 -48 c-27 -26 -47 -52 -45
-57 2 -5 62 -65 132 -133 l128 -124 247 247 247 247 -50 50 c-27 27 -52 50
-55 50 -3 0 -91 -86 -197 -192z"/>
<path d="M5776 6608 c-54 -15 -119 -81 -135 -139 -9 -32 -12 -108 -9 -259 3
-214 3 -215 31 -262 29 -51 63 -78 116 -96 44 -15 432 -16 484 -1 58 16 114
72 132 132 19 63 21 413 3 485 -14 58 -76 122 -134 140 -51 15 -431 15 -488 0z
m473 -154 c20 -25 21 -40 21 -224 0 -184 -1 -199 -21 -224 l-20 -26 -205 0
c-274 0 -254 -20 -254 250 0 270 -20 250 254 250 l205 0 20 -26z"/>
<path d="M6591 6567 c24 -30 95 -116 157 -191 61 -76 112 -141 112 -147 0 -5
-15 -26 -33 -46 -30 -35 -248 -301 -270 -330 -7 -10 9 -13 76 -13 l86 0 111
138 c62 75 116 138 120 140 5 2 59 -60 122 -137 l113 -141 88 0 88 0 -59 73
c-33 39 -106 127 -161 195 l-101 122 155 189 c85 104 155 192 155 195 0 3 -38
6 -84 6 l-83 0 -113 -140 c-62 -78 -116 -139 -120 -138 -4 2 -57 64 -117 138
l-109 135 -88 3 -88 3 43 -54z"/>
<path d="M8580 6230 l0 -390 65 0 65 0 0 390 0 390 -65 0 -65 0 0 -390z"/>
<path d="M9085 6611 c-40 -10 -86 -35 -107 -58 -43 -47 -48 -82 -48 -323 0
-246 5 -277 53 -328 49 -53 68 -57 288 -60 229 -4 270 2 323 49 37 32 66 101
66 156 l0 33 -65 0 -65 0 0 -29 c0 -16 -9 -39 -19 -52 -19 -23 -23 -24 -208
-27 -180 -3 -190 -2 -216 18 l-27 21 0 215 c0 284 -16 268 260 262 167 -3 172
-4 191 -27 10 -13 19 -36 19 -52 l0 -29 65 0 c63 0 65 1 65 26 0 57 -24 118
-60 154 -24 24 -53 41 -83 48 -50 13 -382 15 -432 3z"/>
<path d="M10816 6609 c-63 -15 -102 -45 -130 -101 -25 -51 -26 -56 -26 -263 0
-240 9 -287 62 -342 55 -57 96 -63 405 -63 l273 0 0 65 0 65 -276 0 -276 0
-29 29 c-27 28 -29 34 -29 110 l0 81 305 0 305 0 0 126 c0 71 -5 145 -12 168
-18 60 -75 111 -137 125 -62 13 -379 13 -435 0z m435 -148 c14 -17 19 -39 19
-82 l0 -59 -237 2 -238 3 -3 51 c-3 56 21 99 61 107 12 3 102 4 200 3 175 -1
179 -2 198 -25z"/>
</g>
</svg>
